<svg width="34" height="35" viewBox="0 0 34 35" fill="none" xmlns="http://www.w3.org/2000/svg">
<rect x="0.25" y="0.290039" width="33.5" height="33.5" rx="16.75" stroke="#E6E8EC" stroke-width="0.5"/>
<g clip-path="url(#clip0_306_10422)">
<path d="M16.6827 16.9563C16.6827 16.2185 16.6878 15.4802 16.6797 14.7424C16.6797 14.5753 16.7303 14.5289 16.8936 14.5299C18.3236 14.536 19.7535 14.5299 21.1835 14.537C22.0014 14.5425 22.5102 15.0704 22.5133 15.8905C22.5153 16.6118 22.5153 17.3331 22.5133 18.0544C22.5087 18.8518 21.9837 19.3781 21.183 19.3807C19.7611 19.3852 18.3398 19.3807 16.9184 19.3872C16.7252 19.3872 16.6777 19.3307 16.6802 19.1455C16.6883 18.4158 16.6827 17.686 16.6827 16.9563Z" fill="#020372"/>
<path d="M15.3332 18.3122C15.603 18.651 15.8728 18.9885 16.1425 19.3246C16.0753 19.4109 16.0029 19.3796 15.9402 19.3796C14.6956 19.3796 13.4508 19.3796 12.2058 19.3796C11.3965 19.3796 10.8638 18.8583 10.8542 18.0468C10.8455 17.309 10.8455 16.571 10.8542 15.8329C10.8633 15.088 11.3813 14.5465 12.1147 14.5384C13.4268 14.5243 14.7389 14.5324 16.051 14.5319C16.0855 14.5378 16.1194 14.5471 16.1522 14.5596C15.8608 14.9129 15.5836 15.2535 15.3004 15.5896C15.2392 15.6623 15.1415 15.629 15.0601 15.629C14.2862 15.629 13.5123 15.629 12.7389 15.6315C12.3145 15.6315 12.1532 15.8132 12.1471 16.2315C12.1441 16.4178 12.2275 16.4304 12.3737 16.4294C13.2569 16.4248 14.14 16.4339 15.0232 16.4213C15.2427 16.4183 15.352 16.4581 15.3206 16.7029C15.2892 16.9477 15.4218 17.2711 15.2624 17.4271C15.1152 17.5709 14.7981 17.4659 14.5543 17.4674C13.8396 17.4725 13.1243 17.4775 12.4096 17.4634C12.1962 17.4594 12.1345 17.524 12.1441 17.7309C12.1434 17.8269 12.1661 17.9217 12.2101 18.0071C12.2541 18.0926 12.3183 18.1661 12.397 18.2214C12.4774 18.3223 12.5922 18.2991 12.7005 18.3001C13.5796 18.3122 14.4562 18.2865 15.3332 18.3122Z" fill="#010374"/>
<path d="M5.62095 17.9697C5.31746 18.3375 5.05848 18.7403 4.79596 19.1379C4.67912 19.3151 4.55317 19.4009 4.32656 19.3903C3.91027 19.367 3.49196 19.3837 3.01953 19.3837C3.31796 18.9532 3.58706 18.5636 3.85716 18.175C4.57576 17.1422 5.29453 16.1097 6.01346 15.0775C6.03723 15.0437 6.06 15.0083 6.08579 14.9765C6.71958 14.1691 7.39232 14.1878 7.96996 15.0346C8.91415 16.4167 9.8543 17.8013 10.7904 19.1884C10.8248 19.2389 10.9098 19.2868 10.8653 19.358C10.8253 19.4215 10.7413 19.3827 10.6781 19.3832C10.2998 19.3832 9.91938 19.3802 9.54255 19.3862C9.40547 19.3862 9.31139 19.3569 9.23096 19.2313C9.01397 18.8932 8.77927 18.5662 8.55216 18.2346C8.44442 17.9369 8.41255 17.9207 8.10248 17.9242C7.55823 17.9303 7.01447 17.9242 6.47021 17.9242C6.37714 17.9242 6.27952 17.9288 6.22894 17.8299C6.17836 17.731 6.2259 17.6502 6.27952 17.5745C6.33107 17.5099 6.37903 17.4425 6.42317 17.3726C6.60425 17.0608 6.86172 16.9043 7.23248 16.9508C7.31189 16.9609 7.40041 16.9735 7.47426 16.92C7.42368 16.6136 7.18797 16.4204 7.01903 16.1913C6.94113 16.0863 6.88043 16.2246 6.83794 16.2841C6.49702 16.7588 6.16301 17.2396 5.83592 17.7264C5.7737 17.8167 5.72009 17.9131 5.62095 17.9697Z" fill="#010475"/>
<path d="M28.25 18.286C28.3112 18.6075 28.2642 18.932 28.2779 19.255C28.2839 19.3998 28.1797 19.3822 28.0882 19.3822H26.4529C25.7154 19.3822 24.9774 19.3872 24.2394 19.3822C23.5348 19.3761 23.0472 18.934 22.9531 18.2295C22.9976 17.5043 22.9617 16.7786 22.9713 16.0529C22.9713 15.9374 22.9926 15.8198 22.9531 15.7057C23.0214 15.0265 23.4949 14.5516 24.1747 14.545C25.4858 14.5279 26.7968 14.5395 28.1079 14.5365C28.2187 14.5365 28.2829 14.5587 28.2809 14.6879C28.2758 14.9644 28.2733 15.243 28.2809 15.5175C28.2849 15.6911 28.1732 15.6714 28.0624 15.6689H24.9101C24.4342 15.6689 24.2789 15.8238 24.2774 16.3012C24.2774 16.7554 24.2849 17.2066 24.2743 17.6588C24.2682 17.9111 24.3451 18.1003 24.5687 18.224C24.6476 18.3194 24.7564 18.2775 24.8515 18.278C25.8343 18.2815 26.8166 18.278 27.7994 18.2815C27.9213 18.2815 28.0477 18.2553 28.1575 18.3557C28.2217 18.4132 28.204 18.2891 28.25 18.286Z" fill="#020372"/>
<path d="M29.8561 14.7554C29.2264 14.7528 28.713 14.2598 28.7109 13.6557C28.7109 13.0365 29.2238 12.5374 29.8617 12.5399C30.0138 12.5301 30.1663 12.5515 30.3098 12.6029C30.4533 12.6543 30.5847 12.7345 30.6958 12.8387C30.8069 12.9428 30.8953 13.0686 30.9557 13.2083C31.016 13.348 31.047 13.4985 31.0466 13.6506C31.0462 13.8027 31.0145 13.9531 30.9535 14.0925C30.8924 14.2318 30.8033 14.3572 30.6917 14.4608C30.5801 14.5644 30.4483 14.644 30.3046 14.6946C30.1608 14.7453 30.0082 14.766 29.8561 14.7554Z" fill="#040571"/>
<path d="M19.3124 21.1427C19.859 21.1427 20.406 21.1427 20.9533 21.1427C21.0772 21.1427 21.2188 21.1159 21.2259 21.3112C21.233 21.4949 21.1273 21.5378 20.9699 21.5378C19.8423 21.5378 18.7148 21.5378 17.5876 21.5378C17.4454 21.5378 17.3427 21.5181 17.3458 21.336C17.3488 21.1538 17.4555 21.1396 17.5956 21.1401C18.1682 21.1442 18.7403 21.1427 19.3124 21.1427Z" fill="#F6C818"/>
<path d="M4.95195 21.5299C4.39049 21.5299 3.82886 21.5299 3.26707 21.5299C3.12544 21.5299 3.00202 21.5345 3 21.3281C3 21.1065 3.14062 21.1418 3.27112 21.1418C4.37886 21.1418 5.48626 21.1418 6.59332 21.1418C6.74507 21.1418 6.88568 21.1307 6.87759 21.3498C6.8695 21.5688 6.71371 21.5284 6.58776 21.5294C6.04249 21.5334 5.49722 21.5294 4.95195 21.5294V21.5299Z" fill="#F2650F"/>
<path d="M9.77639 21.1444C10.3394 21.1444 10.9028 21.1444 11.4658 21.1444C11.5958 21.1444 11.6934 21.1474 11.695 21.323C11.695 21.4835 11.6287 21.5224 11.484 21.5224C10.6019 21.5224 9.71974 21.5254 8.83709 21.5279C8.5685 21.5279 8.29991 21.5279 8.03132 21.5345C7.87199 21.539 7.83405 21.4613 7.83203 21.3185C7.83203 21.1636 7.9074 21.1414 8.03436 21.1424C8.61402 21.1464 9.19419 21.1424 9.77437 21.1424L9.77639 21.1444Z" fill="#10B1C3"/>
<path d="M29.0554 21.1463C29.626 21.1463 30.1965 21.1463 30.7671 21.1463C30.892 21.1463 30.9947 21.1412 30.9988 21.3209C31.0028 21.5006 30.9082 21.5228 30.7646 21.5228C29.64 21.5207 28.5157 21.5207 27.3918 21.5228C27.2537 21.5228 27.1237 21.5359 27.1333 21.3209C27.1424 21.119 27.2694 21.1468 27.3938 21.1468C27.9478 21.1461 28.5017 21.146 29.0554 21.1463Z" fill="#EA0D0E"/>
<path d="M24.1844 21.518C23.6124 21.518 23.0403 21.518 22.4682 21.518C22.3347 21.518 22.2441 21.5099 22.2482 21.3343C22.2522 21.1713 22.3251 21.1435 22.4672 21.144C23.6114 21.1478 24.7555 21.1478 25.8997 21.144C26.0378 21.144 26.1192 21.1622 26.1202 21.3308C26.1212 21.4993 26.0383 21.519 25.9012 21.5175C25.3291 21.515 24.7565 21.5175 24.1844 21.518Z" fill="#085894"/>
<path d="M14.5173 21.1439C15.0737 21.1439 15.6301 21.1439 16.183 21.1439C16.319 21.1439 16.4323 21.1439 16.4359 21.3342C16.4359 21.5361 16.3069 21.5144 16.1799 21.5144C15.0611 21.5144 13.9424 21.5144 12.8239 21.5144C12.7227 21.5144 12.5892 21.5522 12.5628 21.3917C12.5365 21.2312 12.5912 21.1394 12.7773 21.1434C13.358 21.15 13.9382 21.146 14.5188 21.146L14.5173 21.1439Z" fill="#B8C915"/>
<path d="M5.62109 17.9696C6.00096 17.3176 6.4739 16.7276 6.88564 16.0973C6.91953 16.0468 6.97213 15.9833 7.01867 16.0615C7.19014 16.3506 7.46935 16.5742 7.55079 16.9194C7.39601 17.0117 7.22453 16.9699 7.06368 16.9618C6.82443 16.9517 6.65903 17.0249 6.52954 17.2358C6.37072 17.4962 6.18812 17.743 6.02018 17.9983C5.87603 18.1472 5.75311 17.9918 5.62109 17.9696Z" fill="#F3F5F2"/>
<path d="M6.01944 17.9977C5.96885 17.9371 6.01185 17.8826 6.04169 17.8397C6.2162 17.5874 6.40436 17.3396 6.57128 17.0827C6.65322 16.9545 6.74528 16.8985 6.89652 16.9071C7.11402 16.9197 7.33203 16.9167 7.54953 16.9207C7.54953 16.9515 7.55408 17.005 7.54346 17.009C7.50375 17.0225 7.46124 17.0254 7.42004 17.0176C6.87831 16.9021 6.56521 17.1988 6.32039 17.6202C6.28752 17.6772 6.23087 17.7347 6.26071 17.8024C6.29713 17.8856 6.38413 17.8765 6.45949 17.874C7.04523 17.8579 7.63198 17.9088 8.2167 17.8463C8.42965 17.8236 8.5905 18.0153 8.55105 18.2333C8.42712 17.9855 8.21063 17.981 7.96936 17.9861C7.31989 17.9992 6.66941 17.9946 6.01944 17.9977Z" fill="#05055A"/>
<path d="M28.2504 18.2858C28.246 18.3867 28.2413 18.4862 28.2362 18.5841C28.1513 18.2409 27.8822 18.3272 27.6551 18.3267C26.7051 18.3267 25.7552 18.3267 24.8053 18.3267C24.7137 18.3267 24.6151 18.3438 24.5362 18.2858C24.4573 18.2278 24.5448 18.2353 24.5691 18.2207C25.1042 18.2792 25.6414 18.2414 26.1776 18.2469C26.7896 18.254 27.4022 18.2469 28.0147 18.2505C28.0906 18.25 28.1821 18.2111 28.2504 18.2858Z" fill="#00004E"/>
<path d="M15.3331 18.3123C14.5187 18.3168 13.7044 18.3234 12.8905 18.3234C12.7251 18.3234 12.5562 18.3557 12.3943 18.2951C12.3149 18.2659 12.3265 18.2386 12.4019 18.2209C12.5312 18.2525 12.6645 18.2651 12.7975 18.2583C13.5592 18.2583 14.3215 18.2583 15.0832 18.2613C15.1657 18.2618 15.2684 18.2114 15.3331 18.3123Z" fill="#010148"/>
<path d="M22.9538 15.7042C23.0008 15.7496 22.9978 15.8087 22.9978 15.8672C22.9978 16.6 22.9978 17.3326 22.9978 18.065C22.9978 18.1235 23.0013 18.1826 22.9533 18.228C22.9243 17.3869 22.9244 16.5456 22.9538 15.7042Z" fill="#030140"/>
<path d="M19.4265 18.2462C19.0219 18.2462 18.6172 18.2417 18.2171 18.2487C18.0795 18.2487 18.0244 18.2139 18.0254 18.0671C18.0308 17.3303 18.0308 16.5933 18.0254 15.8562C18.0254 15.6962 18.0871 15.6609 18.2338 15.6619C19.0401 15.6679 19.8463 15.6619 20.6526 15.6664C20.9768 15.6664 21.166 15.8602 21.1691 16.1852C21.1738 16.6959 21.1738 17.2068 21.1691 17.7178C21.166 18.061 21.0042 18.2331 20.6632 18.2417C20.252 18.2523 19.8403 18.2442 19.429 18.2442L19.4265 18.2462Z" fill="#FEFEFE"/>
<path d="M29.1191 13.6326C29.1465 13.5317 29.0761 13.4161 29.1783 13.3656C29.2243 13.3445 29.2748 13.3351 29.3254 13.3381C29.3759 13.3411 29.425 13.3564 29.4682 13.3828C29.4982 13.3977 29.5239 13.4201 29.5428 13.4478C29.5616 13.4755 29.573 13.5076 29.5758 13.541C29.5786 13.5744 29.5727 13.6079 29.5587 13.6384C29.5448 13.6688 29.5231 13.6952 29.496 13.7148C29.4196 13.7789 29.2835 13.7532 29.2547 13.9006C29.2436 13.9581 29.1601 13.9056 29.1485 13.8627C29.1327 13.7869 29.1229 13.7099 29.1191 13.6326Z" fill="#B9BBD1"/>
<path d="M30.586 13.794C30.457 13.9923 30.3042 13.9838 30.1484 13.8899C30.0473 13.8288 30.0301 13.5059 30.1257 13.4266C30.2708 13.307 30.4241 13.3 30.5956 13.4857C30.3932 13.4756 30.1676 13.4211 30.2415 13.7158C30.2911 13.9272 30.4438 13.7572 30.586 13.794Z" fill="#AEB4D5"/>
<path d="M30.0229 13.8652C29.73 14.0086 29.6476 13.9662 29.6445 13.6937C29.6417 13.6688 29.6417 13.6438 29.6445 13.619C29.6622 13.5387 29.5939 13.3954 29.6981 13.3899C29.8231 13.3833 29.7725 13.5286 29.777 13.6099C29.7887 13.7976 29.7846 13.7976 30.0229 13.8652Z" fill="#D6DCF0"/>
</g>
<defs>
<clipPath id="clip0_306_10422">
<rect width="28" height="9" fill="white" transform="translate(3 12.54)"/>
</clipPath>
</defs>
</svg>
