<svg width="34" height="35" viewBox="0 0 34 35" fill="none" xmlns="http://www.w3.org/2000/svg">
<rect x="0.25" y="0.290039" width="33.5" height="33.5" rx="16.75" fill="white"/>
<rect x="0.25" y="0.290039" width="33.5" height="33.5" rx="16.75" stroke="#E6E8EC" stroke-width="0.5"/>
<g clip-path="url(#clip0_306_10520)">
<path d="M9.78168 15.1345C9.03447 15.4393 8.51634 16.2081 7.59806 16.1255C6.70435 16.0459 6.30322 15.1984 5.57665 14.8277C5.47834 15.102 5.61598 15.2426 5.75854 15.3724C5.88901 15.495 6.03054 15.6052 6.18131 15.7018C7.36701 16.4244 7.44075 17.5629 7.2628 18.7437C7.13105 19.6374 6.3042 19.8979 5.63368 19.2874C4.7675 18.5009 4.39095 17.438 4.12647 16.3379C3.97591 15.6869 3.95552 15.0127 4.0665 14.3538C4.42634 12.0857 6.80071 11.2804 8.57927 11.6098C10.1641 11.9047 11.7716 13.7049 11.1621 15.9869C10.8701 17.1247 10.3333 18.185 9.58898 19.0937C9.43956 19.2885 9.24618 19.4451 9.02464 19.5509C8.30004 19.8714 7.66688 19.5086 7.66393 18.7211C7.66834 18.1693 7.72762 17.6193 7.8409 17.0792C7.9284 16.6328 8.34232 16.4205 8.68938 16.1796C9.06299 15.921 9.4828 15.7244 9.77087 15.3596C9.82003 15.3085 9.84952 15.2525 9.78168 15.1345Z" fill="#F29301"/>
<path d="M13.6009 22.5407C13.3866 22.4424 13.4446 22.2379 13.4436 22.0698C13.4387 21.0139 13.4515 19.957 13.4357 18.901C13.4288 18.4576 13.6186 18.2826 14.0522 18.2974C14.5241 18.3141 14.998 18.2846 15.4699 18.3101C15.991 18.3377 16.4786 18.4576 16.6999 19.018C16.9152 19.5627 16.6743 19.954 16.2083 20.3109C16.7539 20.5872 17.1089 20.9686 16.984 21.5812C16.865 22.1711 16.4924 22.5348 15.8779 22.6174C15.2959 22.5309 14.7109 22.6017 14.1279 22.5771C13.9548 22.5722 13.7739 22.6096 13.6009 22.5407Z" fill="#002B4E"/>
<path d="M21.9589 22.6026C21.8998 22.5878 21.8477 22.5527 21.8118 22.5035C21.7759 22.4543 21.7584 22.394 21.7623 22.3332C21.8301 21.0993 21.8301 19.8626 21.7623 18.6286C21.8006 18.3917 21.9727 18.3081 22.1801 18.3061C22.6668 18.2873 23.1542 18.2945 23.6401 18.3278C24.7718 18.4418 25.4944 19.2451 25.5563 20.4052C25.6163 21.5201 24.934 22.3834 23.8063 22.6183C23.192 22.5609 22.574 22.5556 21.9589 22.6026Z" fill="#002C4E"/>
<path d="M18.0399 22.6204C17.7696 22.5545 17.7637 22.3421 17.7637 22.1288C17.7637 21.0414 17.7696 19.954 17.7637 18.8666C17.7637 18.4733 17.9338 18.3003 18.3211 18.3023C19.0211 18.3072 19.7221 18.3023 20.4222 18.3023C20.6945 18.3023 20.9403 18.3701 20.9432 18.6798C20.9432 19.0131 20.7043 19.0927 20.4035 19.0849C19.9119 19.0731 19.4252 19.0976 18.9376 19.078C18.4716 19.0583 18.6308 19.3897 18.6131 19.6138C18.5945 19.8547 18.5512 20.1251 18.9563 20.0798C19.1647 20.0562 19.379 20.0798 19.5904 20.0798C19.8618 20.073 20.0564 20.1988 20.0604 20.4623C20.0653 20.7523 19.8637 20.8831 19.5688 20.8742C19.4228 20.8841 19.2763 20.8841 19.1303 20.8742C18.6947 20.7995 18.5866 20.9726 18.5925 21.3983C18.5974 21.8033 18.7046 21.9351 19.1126 21.9085C19.615 21.8751 20.1213 21.8977 20.6267 21.9085C20.8164 21.9085 20.9865 21.9833 21.0278 22.1956C21.0691 22.408 21.0337 22.583 20.783 22.6351C19.8705 22.5573 18.9532 22.5524 18.0399 22.6204Z" fill="#012B4E"/>
<path d="M28.4378 22.7393C27.4055 22.7443 26.6435 22.2772 26.324 21.4779C25.9386 20.5193 26.149 19.4133 26.8372 18.7713C27.4576 18.1971 28.5922 18.0585 29.4082 18.4596C29.483 18.4916 29.5536 18.5326 29.6186 18.5815C29.8241 18.7555 30.1347 18.9197 29.9371 19.2451C29.7258 19.5922 29.4455 19.4221 29.1811 19.2599C28.3945 18.7791 27.5215 19.0013 27.144 19.7711C26.7448 20.5842 27.0732 21.5595 27.8597 21.8663C28.0788 21.9564 28.3174 21.9889 28.5527 21.9607C28.788 21.9325 29.0121 21.8445 29.2037 21.705C29.4514 21.5379 29.7169 21.4003 29.9244 21.7129C30.1318 22.0256 29.8575 22.2212 29.6363 22.3775C29.2903 22.6324 28.867 22.7602 28.4378 22.7393Z" fill="#012B4D"/>
<path d="M7.37827 22.6361C7.02138 22.6361 6.66351 22.6479 6.3076 22.6361C5.93006 22.6213 5.63019 22.4896 5.64297 22.0403C5.65477 21.6283 5.91728 21.4828 6.28892 21.4769C7.13298 21.4782 7.97628 21.5278 8.81469 21.6254C9.09096 21.6519 9.3279 21.7444 9.322 22.0894C9.3161 22.409 9.13422 22.5191 8.83042 22.5761C8.34965 22.6646 7.86297 22.6233 7.37827 22.6361Z" fill="#F29403"/>
<path d="M7.34779 21.3C7.03908 21.2764 6.60058 21.2479 6.16307 21.2086C5.86812 21.182 5.60463 21.0808 5.59971 20.7278C5.59338 20.6539 5.6017 20.5795 5.62418 20.5089C5.64667 20.4382 5.68288 20.3727 5.73074 20.3161C5.77861 20.2594 5.83718 20.2128 5.9031 20.1789C5.96902 20.1449 6.04099 20.1243 6.11489 20.1182C6.69693 20.0317 7.28389 20.0632 7.86691 20.1035C8.23855 20.13 8.60822 20.191 8.97691 20.248C9.2168 20.2864 9.34068 20.423 9.33085 20.6846C9.32102 20.9461 9.25023 21.1231 8.98281 21.1968C8.49122 21.3325 7.98489 21.2941 7.34779 21.3Z" fill="#F29403"/>
<path d="M12.4426 22.4307C12.1477 22.8515 11.9756 22.8515 11.6836 22.4307C11.7514 21.1319 11.7396 19.8322 11.6895 18.5324C11.9844 18.1598 12.1388 18.1598 12.4367 18.5324C12.3866 19.8322 12.3757 21.1309 12.4426 22.4307Z" fill="#002C4E"/>
<path d="M11.6901 18.5312C11.8376 18.719 11.7648 18.9393 11.7668 19.1428C11.7747 20.0847 11.7727 21.0265 11.7668 21.9674C11.7668 22.1238 11.8209 22.2958 11.6832 22.4295C11.6468 21.1298 11.635 19.831 11.6901 18.5312Z" fill="#000033"/>
<path d="M12.4422 22.4305C12.3154 22.3125 12.3587 22.1582 12.3587 22.0166C12.3547 20.9941 12.3547 19.9713 12.3587 18.9481C12.3587 18.8065 12.3174 18.6532 12.4363 18.5322C12.4914 19.831 12.4806 21.1308 12.4422 22.4305Z" fill="#000033"/>
<path d="M21.7689 18.6287C21.8958 18.7437 21.8554 18.8961 21.8554 19.0357C21.8554 19.9992 21.8554 20.9627 21.8554 21.9262C21.8554 22.0668 21.8957 22.2212 21.767 22.3333C21.7257 21.0974 21.7207 19.8635 21.7689 18.6287Z" fill="#00113E"/>
<path d="M18.0391 22.6203C18.7273 22.4236 19.4352 22.5721 20.1332 22.5377C20.3456 22.5269 20.5845 22.4482 20.7792 22.6232C19.8667 22.6812 18.9514 22.6802 18.0391 22.6203Z" fill="#000A3A"/>
<path d="M13.6016 22.5408C14.3616 22.5722 15.1274 22.4277 15.8825 22.6175C15.2051 22.7 14.5267 22.642 13.8483 22.6529C13.754 22.6538 13.6507 22.6499 13.6016 22.5408Z" fill="#00093A"/>
<path d="M21.9609 22.6028C22.5803 22.4937 23.1987 22.4652 23.8152 22.6186C23.1968 22.6707 22.5784 22.7061 21.9609 22.6028Z" fill="#000839"/>
<path d="M4.41715 15.2072C4.33752 13.1976 5.81228 12.1987 7.09335 12.0139C8.97711 11.7425 10.4027 12.6362 10.8137 14.2997C10.9494 14.8484 10.8854 15.3989 10.7409 15.9367C10.4695 16.9271 10.0102 17.856 9.38807 18.6729C9.29149 18.804 9.18034 18.9237 9.05675 19.0298C8.84635 19.2107 8.59367 19.3041 8.33313 19.1684C8.07259 19.0327 8.06964 18.7751 8.08439 18.5284C8.09914 18.2816 8.14633 18.0122 8.15911 17.7536C8.16211 17.5164 8.22723 17.2841 8.34799 17.0798C8.46874 16.8756 8.6409 16.7065 8.84733 16.5896C9.15211 16.4037 9.44608 16.1963 9.73808 15.9898C9.94575 15.8591 10.1172 15.6782 10.2366 15.4638C10.2995 15.3588 10.3282 15.2368 10.3187 15.1147C10.3092 14.9926 10.2619 14.8765 10.1835 14.7825C10.0173 14.576 9.80002 14.6448 9.60044 14.7205C9.21602 14.868 8.90141 15.1315 8.56713 15.3616C7.88775 15.8296 7.55151 15.8148 6.89573 15.3085C6.54966 15.0391 6.26454 14.692 5.86832 14.4856C5.39934 14.2398 5.06605 14.4561 5.08669 14.986C5.09064 15.1081 5.11873 15.2283 5.16936 15.3395C5.21998 15.4507 5.29213 15.5507 5.38164 15.6339C5.54662 15.7914 5.72202 15.9375 5.90666 16.0714C6.30549 16.3521 6.60928 16.7477 6.77756 17.2055C6.94584 17.6632 6.9706 18.1614 6.84854 18.6336C6.79447 18.8626 6.71679 19.0789 6.46903 19.1615C6.22127 19.2441 6.03152 19.0937 5.87127 18.9256C4.88023 17.8834 4.46336 16.6171 4.41715 15.2072Z" fill="white"/>
<path d="M14.3186 21.9371C14.1219 20.7701 14.1219 20.7691 15.286 20.772C15.431 20.7616 15.5766 20.7665 15.7206 20.7868C15.833 20.807 15.9361 20.8623 16.0151 20.9448C16.094 21.0273 16.1448 21.1327 16.1601 21.2459C16.2181 21.6215 15.9634 21.7926 15.6812 21.94C15.2311 22.0276 14.7683 22.0266 14.3186 21.9371Z" fill="white"/>
<path d="M14.9195 19.9876C14.7297 19.8735 14.2814 20.253 14.2558 19.6386C14.2372 19.1824 14.3483 18.9769 14.8339 19.0487C15.0394 19.0801 15.2538 19.0487 15.4642 19.0614C15.7522 19.0772 15.9145 19.2345 15.9046 19.5265C15.8948 19.8185 15.7365 19.9719 15.4465 19.9837C15.2813 19.9925 15.1161 19.9876 14.9195 19.9876Z" fill="white"/>
<path d="M14.3184 21.9371H15.681C15.2426 22.1067 14.7568 22.1067 14.3184 21.9371Z" fill="#000134"/>
<path d="M22.5757 20.4713C22.5757 20.1154 22.5757 19.7595 22.5757 19.4036C22.5757 19.263 22.5442 19.088 22.7723 19.0841C23.3563 19.0742 23.9639 19.0074 24.3887 19.5383C24.7819 20.0299 24.7967 20.5824 24.5853 21.1389C24.3611 21.7209 23.2423 22.1398 22.7015 21.8753C22.5659 21.8094 22.5836 21.6973 22.5836 21.5882C22.5747 21.2156 22.5757 20.8439 22.5757 20.4713Z" fill="white"/>
<path d="M8.77575 22.0383C8.50046 22.2733 8.19175 22.2231 7.89089 22.228C7.38653 22.2369 6.88314 22.228 6.37877 22.228C6.25096 22.228 6.08382 22.228 6.09857 22.0462C6.11332 21.8643 6.27554 21.8702 6.39352 21.877C7.19284 21.9233 7.9843 21.9822 8.77575 22.0383Z" fill="#FCF1E2"/>
<path d="M8.87937 20.7278C8.34256 20.9373 7.11654 20.9343 6.05078 20.7219C6.30837 20.4034 8.2757 20.4093 8.87937 20.7278Z" fill="#FDF7EF"/>
<path d="M8.61819 14.5879C8.60857 14.8081 8.51439 15.0162 8.35524 15.1687C8.1961 15.3213 7.98426 15.4066 7.76381 15.4068C7.28795 15.4068 6.8878 15.0539 6.87895 14.6203C6.87404 14.1474 7.25354 13.7925 7.76381 13.7925C8.27408 13.7925 8.62703 14.1228 8.61819 14.5879Z" fill="#F29506"/>
<path d="M8.16477 14.5947C8.1392 14.8513 7.98386 14.9821 7.742 14.9673C7.54537 14.9546 7.33792 14.869 7.34185 14.6262C7.34677 14.3479 7.53848 14.2329 7.79804 14.2329C8.03597 14.2329 8.15592 14.3607 8.16477 14.5947Z" fill="white"/>
</g>
<defs>
<clipPath id="clip0_306_10520">
<rect width="26" height="11.2062" fill="white" transform="translate(4 11.54)"/>
</clipPath>
</defs>
</svg>
