<svg width="17" height="22" viewBox="0 0 17 22" fill="none" xmlns="http://www.w3.org/2000/svg">
<g clip-path="url(#clip0_306_10382)">
<path d="M6.92605 14.0403C6.908 14.7128 6.84031 15.3885 6.95635 16.0564C6.99439 16.275 6.95635 16.373 6.70621 16.364C6.26717 16.3472 5.82684 16.3556 5.38716 16.364C5.20084 16.364 5.14218 16.2995 5.16474 16.1119C5.33236 14.7579 5.26596 13.3962 5.28788 12.0371C5.30142 11.2234 5.29174 10.4091 5.27434 9.59546C5.27047 9.39237 5.32656 9.33757 5.52319 9.34208C5.88744 9.35562 6.25299 9.35755 6.61917 9.34208C6.83063 9.33305 6.8648 9.41816 6.86287 9.60513C6.85384 10.5026 6.85836 11.3995 6.85836 12.3266C6.96731 12.2492 6.97698 12.1364 7.01244 12.0461C7.18225 11.6099 7.45011 11.2186 7.79529 10.9025C8.14048 10.5864 8.55374 10.3539 9.00313 10.223C9.45252 10.0921 9.92599 10.0664 10.3869 10.1477C10.8479 10.2291 11.2839 10.4154 11.6613 10.6922C12.3789 11.2183 12.3802 11.2196 11.8225 11.8817C11.085 12.7586 10.3494 13.6374 9.60025 14.5039C9.42618 14.7063 9.44423 14.7857 9.69889 14.8521C10.3369 15.0196 11.0132 14.962 11.6136 14.6889C11.7671 14.6245 11.9147 14.5445 12.1055 14.453C11.9379 14.9597 11.9624 15.4162 12.2235 15.8424C12.3157 15.9926 12.1932 15.9958 12.1133 16.03C10.1669 16.8579 7.73708 16.197 6.97053 14.1209C6.95758 14.0931 6.94272 14.0661 6.92605 14.0403Z" fill="#373435"/>
<path d="M9.40277 4.26989C9.6729 4.21316 9.94432 4.27892 10.2157 4.26473C10.3621 4.257 10.375 4.32921 10.3111 4.44333C10.2086 4.63095 10.1119 4.82115 10.0172 5.01264C9.85212 5.34533 9.85535 5.34984 10.2273 5.45171C11.177 5.71794 12.0625 6.17466 12.83 6.79407C12.876 6.84077 12.9191 6.89029 12.9589 6.94236C11.7011 6.41238 10.4807 6.19639 9.20678 6.40077C9.18625 6.41506 9.16184 6.42271 9.13683 6.42271C9.11182 6.42271 9.08741 6.41506 9.06688 6.40077C9.00241 6.30471 9.05206 6.20735 9.06108 6.10935C9.10492 5.93527 9.1623 5.7657 9.21839 5.59355C9.29511 5.43559 9.23257 5.3666 9.07269 5.32341C8.74647 5.23507 8.41574 5.27376 8.08694 5.25893C7.93157 5.25248 7.76137 5.29504 7.63953 5.14932C7.5815 5.02038 7.68079 4.9011 7.66274 4.74894C7.17485 4.90775 6.7042 5.11533 6.25794 5.36854C6.57384 5.2441 6.97098 5.17511 7.37584 5.14674C7.59762 5.15899 7.6666 5.26086 7.55765 5.46138C7.3449 5.84823 7.23143 6.2744 7.11668 6.69929C7.00192 7.12418 6.8343 7.24474 6.40751 7.24926C6.13932 7.25248 5.87112 7.25377 5.60293 7.24926C5.23932 7.24216 5.04398 7.12869 4.95823 6.78762C4.80157 6.16866 4.51082 5.61032 4.25423 5.03262C3.91189 4.2628 4.05372 3.52134 4.6275 2.91851C5.17356 2.34533 5.88015 2.16996 6.63831 2.42463C7.40679 2.68253 7.85743 3.23443 7.94318 4.05648C7.98251 4.43624 7.98057 4.43753 8.36481 4.3608C8.57498 4.31825 8.78773 4.28924 8.9979 4.24539C9.132 4.22992 9.27254 4.16416 9.40277 4.26989Z" fill="#F3B331"/>
<path d="M2.68968 17.7844C1.60207 17.0107 0.789755 16.0094 0.197923 14.823C0.118626 14.6644 -0.0689813 14.4742 0.0264338 14.3343C0.116691 14.2054 0.364255 14.3002 0.542191 14.3124C1.13402 14.353 1.1424 14.3569 1.08116 13.7753C0.977361 12.7773 1.02313 11.794 1.3313 10.8289C1.41253 11.3937 1.41447 11.9668 1.55823 12.5232C1.72271 13.2003 1.992 13.8475 2.35637 14.4414C2.47564 14.6303 2.42471 14.6741 2.22743 14.6831C1.99211 14.6941 1.75744 14.7386 1.52277 14.736C1.30938 14.736 1.27392 14.7831 1.33775 14.9939C1.64055 15.9786 2.12971 16.8959 2.77864 17.696C2.79089 17.7657 2.75995 17.7947 2.68968 17.7844Z" fill="#BF3438"/>
<path d="M7.18603 20.1345C5.5904 20.1906 4.11469 19.7941 2.74214 18.9894C2.53454 18.8676 2.60159 18.8108 2.75825 18.7225C2.96262 18.6065 3.15474 18.4678 3.36104 18.3557C3.54672 18.2551 3.54414 18.1771 3.39521 18.0294C2.64354 17.278 2.06623 16.3705 1.70417 15.3711C1.68835 15.3301 1.68368 15.2856 1.69064 15.2422C2.48748 16.3383 3.48354 17.1764 4.77228 17.6922C4.58984 17.974 4.33454 18.1319 4.10245 18.3034C3.89356 18.4575 3.93418 18.5336 4.11405 18.6735C4.96569 19.3305 5.81798 19.7373 7.18603 20.1345Z" fill="#F3B431"/>
<path d="M8.76758 19.8262C9.61278 19.5393 10.4032 19.177 11.1123 18.6457C11.4065 18.4311 11.6779 18.1867 11.9221 17.9165C12.0949 17.7231 12.1619 17.7876 12.2277 17.9913C12.2934 18.195 12.3959 18.4091 12.4546 18.6244C12.51 18.8288 12.5932 18.8179 12.7473 18.7231C13.6049 18.1912 14.3475 17.4932 14.9315 16.6702C14.9809 16.5892 15.0544 16.5256 15.1417 16.4884C15.0643 16.6947 14.9979 16.9062 14.909 17.1074C14.4001 18.2582 13.6289 19.2739 12.657 20.0732C12.4946 20.2079 12.4185 20.215 12.3798 19.9874C12.3411 19.7598 12.2709 19.5297 12.2393 19.2976C12.2077 19.0654 12.1161 19.0777 11.9395 19.157C10.9724 19.5928 9.96156 19.8424 8.89523 19.8378C8.85268 19.8346 8.81013 19.8295 8.76758 19.8262Z" fill="#F3B431"/>
<path d="M11.5227 19.6976C10.2623 20.5815 8.85432 21.0212 7.27997 21.1192C7.41536 20.7968 7.52689 20.5106 7.65583 20.232C7.73642 20.0567 7.73513 19.9832 7.50755 19.9426C6.50267 19.7652 5.5454 19.3817 4.69603 18.8162C4.65348 18.7885 4.61544 18.7517 4.57031 18.7188C4.63156 18.6311 4.6928 18.6763 4.74309 18.6937C5.86432 19.078 7.06816 19.1544 8.22896 18.9148C8.45783 18.8684 8.46879 18.9361 8.42237 19.1115C8.3579 19.3384 8.316 19.5725 8.22896 19.7897C8.14193 20.007 8.22896 20.0328 8.42237 20.0476C9.44293 20.116 10.428 19.9413 11.3944 19.6318C11.4634 19.5957 11.5279 19.5789 11.5227 19.6976Z" fill="#C03438"/>
<path d="M10.5156 5.28906C12.1074 5.31356 13.5328 5.85257 14.8596 6.81195C14.5624 6.97056 14.3077 7.11949 14.0408 7.24457C13.8339 7.34193 13.8042 7.42123 13.9654 7.61014C14.6669 8.42604 15.1612 9.39922 15.4063 10.447C14.6971 9.31613 13.7746 8.4193 12.5168 7.80872C12.8017 7.60369 13.0403 7.40963 13.3007 7.25166C13.4941 7.13432 13.4696 7.05824 13.3226 6.92607C12.5602 6.23241 11.6649 5.70073 10.691 5.36321C10.631 5.34129 10.5743 5.31356 10.5156 5.28906Z" fill="#BF3438"/>
<path d="M14.4289 14.7443C14.7351 14.8868 14.9768 15.0809 15.2199 15.2692C15.3759 15.3904 15.4314 15.3588 15.5055 15.1854C15.9478 14.1447 16.1373 13.0577 16.1347 11.9326C16.6356 13.462 16.6034 14.9926 16.1347 16.5748C15.8768 16.342 15.6467 16.1422 15.4256 15.93C15.2818 15.7895 15.2115 15.7856 15.1032 15.9797C14.6489 16.7836 14.0405 17.4899 13.3129 18.0583C13.2194 18.1325 13.1369 18.2569 12.9551 18.2073C13.3528 17.7102 13.6823 17.1623 13.935 16.578C14.1858 15.9977 14.3147 15.3826 14.4289 14.7443Z" fill="#C03438"/>
<path d="M15.4455 14.7405C15.4591 13.5768 15.2786 12.4581 14.7886 11.3943C14.581 10.943 14.5862 10.9398 15.0968 10.9378C15.8091 10.9346 15.8104 10.9346 15.6074 10.2357C15.4788 9.79354 15.312 9.36338 15.109 8.95008C14.9081 8.54789 14.6744 8.16296 14.4102 7.79922C14.5191 7.71862 14.5597 7.81018 14.6074 7.8508C15.6757 8.75592 16.4878 9.92554 16.9625 11.2428C17.0328 11.4362 17.0167 11.4962 16.802 11.4581C16.5873 11.4201 16.3745 11.4143 16.1657 11.3692C15.9078 11.3137 15.8162 11.3801 15.8478 11.6541C15.9426 12.4717 15.8549 13.2776 15.6506 14.0719C15.5925 14.2969 15.5145 14.5149 15.4455 14.7405Z" fill="#F3B431"/>
<path d="M3.33487 2.65734C3.41481 2.56127 3.48315 2.45102 3.6656 2.38525C3.52634 2.87784 3.31746 3.32658 3.40256 3.81917C3.41416 4.05127 3.34583 4.11768 3.10987 4.00743C2.70887 3.82045 2.68501 3.8327 2.65084 4.28854C2.62312 4.65282 2.64504 5.02161 2.61345 5.39105C2.24454 4.77864 2.08838 4.06145 2.16926 3.35108C2.42713 3.32594 2.55285 3.71601 2.8262 3.49099C2.91968 3.16733 3.03831 2.85785 3.33487 2.65734Z" fill="#C23B3F"/>
<path d="M7.59463 1.6993C7.49664 1.81536 7.40122 1.6993 7.30323 1.69415C6.86161 1.66062 6.4258 1.68576 6.00868 1.8347C5.81527 1.90369 5.7508 1.87532 5.7869 1.67094C5.79132 1.63908 5.79412 1.60701 5.79529 1.57487C5.8243 1.20994 5.77659 1.15514 5.42523 1.25636C5.2892 1.29505 5.15575 1.2886 5.02423 1.32084C4.85467 1.50459 4.6084 1.51426 4.39372 1.59937C4.33569 1.62193 4.23512 1.62903 4.24479 1.50524C4.69085 1.09323 5.22351 0.786343 5.80367 0.607107C6.19049 0.488474 6.20725 0.502658 6.1215 0.884347C6.11441 0.915295 6.11248 0.948822 6.10796 0.97848C6.04349 1.16546 6.10087 1.21446 6.30137 1.21317C6.78876 1.2093 7.24585 1.32019 7.59463 1.6993Z" fill="#C0363A"/>
<path d="M8.94764 3.19765C8.56083 2.74633 8.07021 2.46909 7.48869 2.3021C7.5119 2.13898 7.64729 2.05581 7.74657 1.96425C7.93354 1.79533 7.90775 1.69346 7.6821 1.61803C7.28304 1.47812 6.90266 1.28598 6.48812 1.18798C6.43526 1.17509 6.35338 1.16026 6.39722 1.06483C7.16312 0.992623 7.90775 1.0442 8.60209 1.42783C8.56083 1.55677 8.45058 1.59352 8.37193 1.65735C8.06828 1.90107 8.06699 1.89849 8.36677 2.14865C8.7465 2.32724 8.86577 2.70442 9.03984 3.03711C9.0501 3.05319 9.05576 3.07178 9.0562 3.09085C9.05664 3.10992 9.05185 3.12875 9.04235 3.1453C9.03285 3.16184 9.01901 3.17547 9.00231 3.1847C8.98561 3.19393 8.96671 3.1984 8.94764 3.19765Z" fill="#C0363A"/>
<path d="M5.2838 1.38005H5.60615C5.02934 1.63318 4.54574 2.05979 4.22263 2.60055C4.17235 2.54252 4.13818 2.50448 4.10594 2.46515C4.00021 2.3362 3.96475 2.06348 3.81841 2.08217C3.625 2.10668 3.45415 2.28785 3.33617 2.47353C3.31361 2.50964 3.29362 2.54704 3.2717 2.58379C3.1937 2.81396 3.01382 2.98675 2.91841 3.20725C2.8952 3.26077 2.85394 3.3362 2.78044 3.29881C2.70695 3.26141 2.72565 3.17824 2.76562 3.11183C2.89244 2.49483 3.16154 1.91596 3.5515 1.42131C3.68044 1.26335 3.75716 1.26335 3.81712 1.46322C3.82937 1.50384 3.84871 1.54188 3.86482 1.58121C4.00472 1.92486 4.00472 1.92486 4.30709 1.68953C4.59075 1.44323 4.93889 1.42196 5.2838 1.38005Z" fill="#C1373B"/>
<path d="M2.82846 4.34399C3.04443 4.80047 3.18304 5.29886 3.56019 5.66701C3.62144 5.72697 3.60145 5.78177 3.51958 5.80563C3.43931 5.83339 3.35665 5.85367 3.27266 5.86624C2.97739 5.8946 2.93548 6.02742 3.10246 6.25308C3.38935 6.51614 3.55374 6.88042 3.83741 7.14863C3.87738 7.18603 3.93669 7.28338 3.79744 7.30144C3.11664 6.99841 2.59959 6.51356 2.20117 5.8946C2.23083 5.86366 2.24179 5.8398 2.25726 5.83658C2.44551 5.79918 2.68856 5.87977 2.81492 5.74696C2.95418 5.6006 2.75045 5.39557 2.76335 5.20924C2.7872 4.92233 2.66858 4.62317 2.82846 4.34399Z" fill="#C1363A"/>
<path d="M6.8789 7.61092C7.15099 7.44686 7.38892 7.23189 7.57968 6.97779C7.67639 6.84884 7.73828 6.81466 7.80855 6.99068C7.84336 7.07772 7.90267 7.15638 7.93233 7.24535C8.00905 7.47424 8.11478 7.42975 8.23792 7.28791C8.50998 6.97972 8.77237 6.66186 9.09085 6.3988H9.20367C9.05797 7.05193 8.70726 7.58965 8.25855 8.07514C8.14379 8.19893 8.07932 8.23246 8.00647 8.03323C7.84981 7.60319 7.84207 7.61092 7.40046 7.76308C7.19995 7.83207 6.99236 7.88043 6.78735 7.93781C6.69838 7.93781 6.65196 7.87849 6.61328 7.80886C6.62166 7.63542 6.76865 7.64767 6.8789 7.61092Z" fill="#C0363A"/>
<path d="M3.33868 6.21375C3.71711 6.58318 4.09039 6.76887 4.77764 6.92812C4.80278 7.04095 4.70994 7.09833 4.65579 7.1699C4.38179 7.5316 4.37922 7.53289 4.80343 7.71664C4.93946 7.77596 5.08258 7.8198 5.22248 7.87138C5.2554 7.90603 5.27491 7.95128 5.27751 7.99901C5.28011 8.04674 5.26563 8.09384 5.23666 8.13186C4.72147 8.17849 4.20278 8.09607 3.72743 7.89201C3.86733 7.75081 3.98144 7.62896 4.10329 7.51484C4.21417 7.41168 4.1987 7.33818 4.06654 7.27822C3.65329 7.07706 3.43216 6.70311 3.21747 6.32658C3.17363 6.24082 3.19555 6.22406 3.33868 6.21375Z" fill="#C0363A"/>
<path d="M9.00686 4.32787C8.91145 4.15186 8.83666 3.96037 8.71546 3.8037C8.55686 3.59802 8.65099 3.55934 8.8444 3.5458C8.86567 3.5458 8.8863 3.53935 8.90887 3.53613C9.29569 3.47617 9.29569 3.47617 9.13967 3.11124C8.90178 2.76695 8.68065 2.41169 8.44727 2.06418C8.52463 1.98229 8.58587 2.05515 8.6439 2.08997C9.19526 2.42714 9.65131 2.89965 9.96875 3.46263C10.0539 3.60769 10.0384 3.65605 9.85593 3.67088C9.68895 3.68377 9.45235 3.55869 9.36918 3.76372C9.3118 3.90299 9.38852 4.0977 9.40593 4.26727L9.00686 4.32787Z" fill="#C0373A"/>
<path d="M6.01077 8.64763H5.46407C5.32611 8.64763 5.24101 8.59476 5.23649 8.44196C5.23198 8.28915 5.3203 8.24854 5.4602 8.24854C5.82446 8.25369 6.18935 8.25369 6.55619 8.24854C6.69157 8.24854 6.78312 8.27432 6.78248 8.44196C6.78183 8.60959 6.69609 8.6457 6.56005 8.6457H6.01077V8.64763Z" fill="#494748"/>
<path d="M5.23551 8.13173C5.22971 8.04469 5.22455 7.95701 5.21875 7.86997C5.23745 7.8474 5.2555 7.82483 5.27419 7.80549C5.72548 7.66042 6.18193 7.67654 6.63966 7.77777C6.6764 7.78832 6.70939 7.80906 6.73483 7.83758C6.76028 7.86611 6.77712 7.90125 6.78343 7.93895C6.78343 8.08789 6.71896 8.16719 6.55779 8.16913C6.11875 8.17428 5.67713 8.21104 5.23551 8.13173Z" fill="#423F40"/>
<path d="M6.39707 1.06474C6.71168 1.22657 7.0798 1.24526 7.38603 1.43095C7.48596 1.49091 7.58331 1.55539 7.68195 1.61793L7.59427 1.69916C7.16297 1.47221 6.72071 1.27557 6.22365 1.24784C5.98898 1.23559 6.03024 1.11889 6.1076 0.977051C6.10696 1.32457 6.29134 1.06603 6.39707 1.06474Z" fill="#ECD7D7"/>
<path d="M3.33817 6.21363C3.17699 6.22975 3.28852 6.31099 3.31109 6.35419C3.49741 6.71589 3.78945 6.99248 4.06861 7.27939C3.98415 7.36063 3.90034 7.44316 3.79655 7.30325C3.8262 7.1195 3.63988 7.08726 3.56317 6.98088C3.39812 6.74619 3.20278 6.52956 3.10156 6.25747C3.17312 6.18333 3.20665 5.92479 3.33817 6.21363Z" fill="#EBD3D4"/>
<path d="M5.52148 8.74553C5.8116 8.74553 6.05594 8.74553 6.30028 8.74553C6.34992 8.74553 6.41116 8.73328 6.43566 8.79905C6.46403 8.87577 6.40278 8.91768 6.35894 8.95894C6.12299 9.18138 5.7626 9.10788 5.52148 8.74553Z" fill="#3E3B3C"/>
<path d="M8.44455 2.06689C8.76173 2.3504 9.00025 2.71109 9.13696 3.11396C9.03961 3.32544 9.03961 3.32544 8.94806 3.19778C9.03832 2.99597 8.86941 2.87218 8.78946 2.73356C8.65944 2.5311 8.51847 2.33588 8.36719 2.14878L8.44455 2.06689Z" fill="#ECD4D5"/>
<path d="M2.76747 3.11191C2.77456 3.15382 2.76747 3.21507 2.79004 3.23247C2.84032 3.26923 2.83775 3.19766 2.85128 3.17638C2.98022 2.972 3.07757 2.74311 3.27356 2.58386L3.33803 2.65736L2.82743 3.48973C2.70429 3.38077 2.63402 3.26213 2.76747 3.11191Z" fill="#ECD6D7"/>
<path d="M5.28617 1.38019L4.31009 1.68966C4.2553 1.5865 4.1328 1.74576 4.10573 1.64904C4.08832 1.58457 4.17729 1.53364 4.24563 1.50398C4.41518 1.62712 4.51704 1.42661 4.6621 1.415C4.7858 1.39458 4.90732 1.36263 5.02506 1.31958C5.09663 1.40598 5.19978 1.35569 5.28617 1.38019Z" fill="#EDD8D8"/>
<path d="M2.68945 17.7843L2.77842 17.6947C2.89318 17.7682 2.97183 17.8739 3.07176 18.0274C2.91986 17.9935 2.78461 17.9075 2.68945 17.7843Z" fill="#D27A7C"/>
<path d="M11.5234 19.6973C11.4989 19.6361 11.4409 19.6406 11.3906 19.6296C11.5054 19.5323 11.6485 19.5007 11.8329 19.442C11.7342 19.589 11.644 19.6612 11.5234 19.6973Z" fill="#D37D7F"/>
<path d="M10.1681 11.5671C10.1469 11.612 10.1221 11.6551 10.0939 11.6961C9.52981 12.3646 8.96441 13.0326 8.39449 13.7064C8.14177 13.2737 8.21398 12.6167 8.56341 12.1732C8.96699 11.6645 9.49177 11.462 10.1681 11.5671Z" fill="#F5F5F5"/>
<path d="M8.23047 7.03602C8.54959 6.53376 8.68627 5.97799 8.69078 5.37451C8.92416 5.41835 9.09178 5.55246 9.28004 5.64273C9.23297 5.80391 9.18526 5.9651 9.1382 6.12628C8.96542 6.47316 8.76557 6.80004 8.44257 7.02893C8.35812 7.08953 8.35683 7.08695 8.23047 7.03602Z" fill="#C0373A"/>
<path d="M7.64259 5.10796L7.34087 5.22466C6.88959 5.28913 6.44217 5.38649 5.99023 5.47804C6.52791 5.08281 7.12941 4.82814 7.78185 4.61279C7.80634 4.81718 7.73478 4.96482 7.64259 5.10796Z" fill="#FDFAF5"/>
<path d="M8.23181 7.03583C8.36977 7.12223 8.40523 6.97652 8.47421 6.92236C8.7495 6.7025 8.90938 6.38464 9.13954 6.1261C9.12407 6.2183 9.10795 6.30985 9.09183 6.40205C8.88152 6.76147 8.58927 7.06611 8.2389 7.29115C8.14606 7.2054 8.05452 7.12287 8.23181 7.03583Z" fill="#ECD6D6"/>
<path d="M5.40173 7.68448C5.26118 7.67029 5.23475 7.57552 5.24378 7.45882C5.25022 7.38145 5.27214 7.29183 5.35982 7.2957C5.82787 7.31633 6.30237 7.20414 6.76461 7.35308C6.82908 7.5465 6.78331 7.71414 6.56411 7.72381C6.1773 7.73993 5.78532 7.79731 5.40173 7.68448Z" fill="#383536"/>
<path d="M5.40245 7.68445C5.74994 7.68445 6.09808 7.66768 6.44557 7.68445C6.69636 7.69476 6.79435 7.59612 6.76792 7.35498L6.88203 7.61288L6.64672 7.77858L5.28125 7.8063L5.40245 7.68445Z" fill="#BAB6B7"/>
</g>
<defs>
<clipPath id="clip0_306_10382">
<rect width="17" height="20.5789" fill="white" transform="translate(0 0.540039)"/>
</clipPath>
</defs>
</svg>
