<svg width="34" height="35" viewBox="0 0 34 35" fill="none" xmlns="http://www.w3.org/2000/svg">
<rect x="0.25" y="0.290039" width="33.5" height="33.5" rx="16.75" fill="white"/>
<rect x="0.25" y="0.290039" width="33.5" height="33.5" rx="16.75" stroke="#E6E8EC" stroke-width="0.5"/>
<g clip-path="url(#clip0_306_10381)">
<path d="M15.9261 20.0403C15.908 20.7128 15.8403 21.3885 15.9564 22.0564C15.9944 22.275 15.9564 22.373 15.7062 22.364C15.2672 22.3472 14.8268 22.3556 14.3872 22.364C14.2008 22.364 14.1422 22.2995 14.1647 22.1119C14.3324 20.7579 14.266 19.3962 14.2879 18.0371C14.3014 17.2234 14.2917 16.4091 14.2743 15.5955C14.2705 15.3924 14.3266 15.3376 14.5232 15.3421C14.8874 15.3556 15.253 15.3576 15.6192 15.3421C15.8306 15.3331 15.8648 15.4182 15.8629 15.6051C15.8538 16.5026 15.8584 17.3995 15.8584 18.3266C15.9673 18.2492 15.977 18.1364 16.0124 18.0461C16.1823 17.6099 16.4501 17.2186 16.7953 16.9025C17.1405 16.5864 17.5537 16.3539 18.0031 16.223C18.4525 16.0921 18.926 16.0664 19.3869 16.1477C19.8479 16.2291 20.2839 16.4154 20.6613 16.6922C21.3789 17.2183 21.3802 17.2196 20.8225 17.8817C20.085 18.7586 19.3494 19.6374 18.6003 20.5039C18.4262 20.7063 18.4442 20.7857 18.6989 20.8521C19.3369 21.0196 20.0132 20.962 20.6136 20.6889C20.7671 20.6245 20.9147 20.5445 21.1055 20.453C20.9379 20.9597 20.9624 21.4162 21.2235 21.8424C21.3157 21.9926 21.1932 21.9958 21.1133 22.03C19.1669 22.8579 16.7371 22.197 15.9705 20.1209C15.9576 20.0931 15.9427 20.0661 15.9261 20.0403Z" fill="#373435"/>
<path d="M18.4028 10.2699C18.6729 10.2132 18.9443 10.2789 19.2157 10.2647C19.3621 10.257 19.375 10.3292 19.3111 10.4433C19.2086 10.6309 19.1119 10.8211 19.0172 11.0126C18.8521 11.3453 18.8553 11.3498 19.2273 11.4517C20.177 11.7179 21.0625 12.1747 21.83 12.7941C21.876 12.8408 21.9191 12.8903 21.9589 12.9424C20.7011 12.4124 19.4807 12.1964 18.2068 12.4008C18.1863 12.4151 18.1618 12.4227 18.1368 12.4227C18.1118 12.4227 18.0874 12.4151 18.0669 12.4008C18.0024 12.3047 18.0521 12.2073 18.0611 12.1093C18.1049 11.9353 18.1623 11.7657 18.2184 11.5936C18.2951 11.4356 18.2326 11.3666 18.0727 11.3234C17.7465 11.2351 17.4157 11.2738 17.0869 11.2589C16.9316 11.2525 16.7614 11.295 16.6395 11.1493C16.5815 11.0204 16.6808 10.9011 16.6627 10.7489C16.1748 10.9077 15.7042 11.1153 15.2579 11.3685C15.5738 11.2441 15.971 11.1751 16.3758 11.1467C16.5976 11.159 16.6666 11.2609 16.5576 11.4614C16.3449 11.8482 16.2314 12.2744 16.1167 12.6993C16.0019 13.1242 15.8343 13.2447 15.4075 13.2493C15.1393 13.2525 14.8711 13.2538 14.6029 13.2493C14.2393 13.2422 14.044 13.1287 13.9582 12.7876C13.8016 12.1687 13.5108 11.6103 13.2542 11.0326C12.9119 10.2628 13.0537 9.52134 13.6275 8.91851C14.1736 8.34533 14.8801 8.16996 15.6383 8.42463C16.4068 8.68253 16.8574 9.23443 16.9432 10.0565C16.9825 10.4362 16.9806 10.4375 17.3648 10.3608C17.575 10.3182 17.7877 10.2892 17.9979 10.2454C18.132 10.2299 18.2725 10.1642 18.4028 10.2699Z" fill="#F3B331"/>
<path d="M11.6897 23.7844C10.6021 23.0107 9.78975 22.0094 9.19792 20.823C9.11863 20.6644 8.93102 20.4742 9.02643 20.3343C9.11669 20.2054 9.36425 20.3002 9.54219 20.3124C10.134 20.353 10.1424 20.3569 10.0812 19.7753C9.97736 18.7773 10.0231 17.794 10.3313 16.8289C10.4125 17.3937 10.4145 17.9668 10.5582 18.5232C10.7227 19.2003 10.992 19.8475 11.3564 20.4414C11.4756 20.6303 11.4247 20.6741 11.2274 20.6831C10.9921 20.6941 10.7574 20.7386 10.5228 20.736C10.3094 20.736 10.2739 20.7831 10.3377 20.9939C10.6405 21.9786 11.1297 22.8959 11.7786 23.696C11.7909 23.7657 11.7599 23.7947 11.6897 23.7844Z" fill="#BF3438"/>
<path d="M16.186 26.1345C14.5904 26.1906 13.1147 25.7941 11.7421 24.9894C11.5345 24.8676 11.6016 24.8108 11.7583 24.7225C11.9626 24.6065 12.1547 24.4678 12.361 24.3557C12.5467 24.2551 12.5441 24.1771 12.3952 24.0294C11.6435 23.278 11.0662 22.3705 10.7042 21.3711C10.6883 21.3301 10.6837 21.2856 10.6906 21.2422C11.4875 22.3383 12.4835 23.1764 13.7723 23.6922C13.5898 23.974 13.3345 24.1319 13.1024 24.3034C12.8936 24.4575 12.9342 24.5336 13.1141 24.6735C13.9657 25.3305 14.818 25.7373 16.186 26.1345Z" fill="#F3B431"/>
<path d="M17.7676 25.8262C18.6128 25.5393 19.4032 25.177 20.1123 24.6457C20.4065 24.4311 20.6779 24.1867 20.9221 23.9165C21.0949 23.7231 21.1619 23.7876 21.2277 23.9913C21.2934 24.195 21.3959 24.4091 21.4546 24.6244C21.51 24.8288 21.5932 24.8179 21.7473 24.7231C22.6049 24.1912 23.3475 23.4932 23.9315 22.6702C23.9809 22.5892 24.0544 22.5256 24.1417 22.4884C24.0643 22.6947 23.9979 22.9062 23.909 23.1074C23.4001 24.2582 22.6289 25.2739 21.657 26.0732C21.4946 26.2079 21.4185 26.215 21.3798 25.9874C21.3411 25.7598 21.2709 25.5297 21.2393 25.2976C21.2077 25.0654 21.1161 25.0777 20.9395 25.157C19.9724 25.5928 18.9616 25.8424 17.8952 25.8378C17.8527 25.8346 17.8101 25.8295 17.7676 25.8262Z" fill="#F3B431"/>
<path d="M20.5227 25.6976C19.2623 26.5815 17.8543 27.0212 16.28 27.1192C16.4154 26.7968 16.5269 26.5106 16.6558 26.232C16.7364 26.0567 16.7351 25.9832 16.5075 25.9426C15.5027 25.7652 14.5454 25.3817 13.696 24.8162C13.6535 24.7885 13.6154 24.7517 13.5703 24.7188C13.6316 24.6311 13.6928 24.6763 13.7431 24.6937C14.8643 25.078 16.0682 25.1544 17.229 24.9148C17.4578 24.8684 17.4688 24.9361 17.4224 25.1115C17.3579 25.3384 17.316 25.5725 17.229 25.7897C17.1419 26.007 17.229 26.0328 17.4224 26.0476C18.4429 26.116 19.428 25.9413 20.3944 25.6318C20.4634 25.5957 20.5279 25.5789 20.5227 25.6976Z" fill="#C03438"/>
<path d="M19.5156 11.2891C21.1074 11.3136 22.5328 11.8526 23.8596 12.8119C23.5624 12.9706 23.3077 13.1195 23.0408 13.2446C22.8339 13.3419 22.8042 13.4212 22.9654 13.6101C23.6669 14.426 24.1612 15.3992 24.4063 16.447C23.6971 15.3161 22.7746 14.4193 21.5168 13.8087C21.8017 13.6037 22.0403 13.4096 22.3007 13.2517C22.4941 13.1343 22.4696 13.0582 22.3226 12.9261C21.5602 12.2324 20.6649 11.7007 19.691 11.3632C19.631 11.3413 19.5743 11.3136 19.5156 11.2891Z" fill="#BF3438"/>
<path d="M23.4289 20.7443C23.7351 20.8868 23.9768 21.0809 24.2199 21.2692C24.3759 21.3904 24.4314 21.3588 24.5055 21.1854C24.9478 20.1447 25.1373 19.0577 25.1347 17.9326C25.6356 19.462 25.6034 20.9926 25.1347 22.5748C24.8768 22.342 24.6467 22.1422 24.4256 21.93C24.2818 21.7895 24.2115 21.7856 24.1032 21.9797C23.6489 22.7836 23.0405 23.4899 22.3129 24.0583C22.2194 24.1325 22.1369 24.2569 21.9551 24.2073C22.3528 23.7102 22.6823 23.1623 22.935 22.578C23.1858 21.9977 23.3147 21.3826 23.4289 20.7443Z" fill="#C03438"/>
<path d="M24.4455 20.7405C24.4591 19.5768 24.2786 18.4581 23.7886 17.3943C23.581 16.943 23.5862 16.9398 24.0968 16.9378C24.8091 16.9346 24.8104 16.9346 24.6074 16.2357C24.4788 15.7935 24.312 15.3634 24.109 14.9501C23.9081 14.5479 23.6744 14.163 23.4102 13.7992C23.5191 13.7186 23.5597 13.8102 23.6074 13.8508C24.6757 14.7559 25.4878 15.9255 25.9625 17.2428C26.0328 17.4362 26.0167 17.4962 25.802 17.4581C25.5873 17.4201 25.3745 17.4143 25.1657 17.3692C24.9078 17.3137 24.8162 17.3801 24.8478 17.6541C24.9426 18.4717 24.8549 19.2776 24.6506 20.0719C24.5925 20.2969 24.5145 20.5149 24.4455 20.7405Z" fill="#F3B431"/>
<path d="M12.3349 8.65734C12.4148 8.56127 12.4831 8.45102 12.6656 8.38525C12.5263 8.87784 12.3175 9.32658 12.4026 9.81917C12.4142 10.0513 12.3458 10.1177 12.1099 10.0074C11.7089 9.82045 11.685 9.8327 11.6508 10.2885C11.6231 10.6528 11.645 11.0216 11.6135 11.3911C11.2445 10.7786 11.0884 10.0615 11.1693 9.35108C11.4271 9.32594 11.5529 9.71601 11.8262 9.49099C11.9197 9.16733 12.0383 8.85785 12.3349 8.65734Z" fill="#C23B3F"/>
<path d="M16.5946 7.6993C16.4966 7.81536 16.4012 7.6993 16.3032 7.69415C15.8616 7.66062 15.4258 7.68576 15.0087 7.8347C14.8153 7.90369 14.7508 7.87532 14.7869 7.67094C14.7913 7.63908 14.7941 7.60701 14.7953 7.57487C14.8243 7.20994 14.7766 7.15514 14.4252 7.25636C14.2892 7.29505 14.1557 7.2886 14.0242 7.32084C13.8547 7.50459 13.6084 7.51426 13.3937 7.59937C13.3357 7.62193 13.2351 7.62903 13.2448 7.50524C13.6909 7.09323 14.2235 6.78634 14.8037 6.60711C15.1905 6.48847 15.2072 6.50266 15.1215 6.88435C15.1144 6.91529 15.1125 6.94882 15.108 6.97848C15.0435 7.16546 15.1009 7.21446 15.3014 7.21317C15.7888 7.2093 16.2459 7.32019 16.5946 7.6993Z" fill="#C0363A"/>
<path d="M17.9476 9.19765C17.5608 8.74633 17.0702 8.46909 16.4887 8.3021C16.5119 8.13898 16.6473 8.05581 16.7466 7.96425C16.9335 7.79533 16.9077 7.69346 16.6821 7.61803C16.283 7.47812 15.9027 7.28598 15.4881 7.18798C15.4353 7.17509 15.3534 7.16026 15.3972 7.06483C16.1631 6.99262 16.9077 7.0442 17.6021 7.42783C17.5608 7.55677 17.4506 7.59352 17.3719 7.65735C17.0683 7.90107 17.067 7.89849 17.3668 8.14865C17.7465 8.32724 17.8658 8.70442 18.0398 9.03711C18.0501 9.05319 18.0558 9.07178 18.0562 9.09085C18.0566 9.10992 18.0519 9.12875 18.0424 9.1453C18.0329 9.16184 18.019 9.17547 18.0023 9.1847C17.9856 9.19393 17.9667 9.1984 17.9476 9.19765Z" fill="#C0363A"/>
<path d="M14.2838 7.38005H14.6061C14.0293 7.63318 13.5457 8.05979 13.2226 8.60055C13.1723 8.54252 13.1382 8.50448 13.1059 8.46515C13.0002 8.3362 12.9648 8.06348 12.8184 8.08217C12.625 8.10668 12.4542 8.28785 12.3362 8.47353C12.3136 8.50964 12.2936 8.54704 12.2717 8.58379C12.1937 8.81396 12.0138 8.98675 11.9184 9.20725C11.8952 9.26077 11.8539 9.3362 11.7804 9.29881C11.7069 9.26141 11.7256 9.17824 11.7656 9.11183C11.8924 8.49483 12.1615 7.91596 12.5515 7.42131C12.6804 7.26335 12.7572 7.26335 12.8171 7.46322C12.8294 7.50384 12.8487 7.54188 12.8648 7.58121C13.0047 7.92486 13.0047 7.92486 13.3071 7.68953C13.5908 7.44323 13.9389 7.42196 14.2838 7.38005Z" fill="#C1373B"/>
<path d="M11.8285 10.344C12.0444 10.8005 12.183 11.2989 12.5602 11.667C12.6214 11.727 12.6015 11.7818 12.5196 11.8056C12.4393 11.8334 12.3567 11.8537 12.2727 11.8662C11.9774 11.8946 11.9355 12.0274 12.1025 12.2531C12.3893 12.5161 12.5537 12.8804 12.8374 13.1486C12.8774 13.186 12.9367 13.2834 12.7974 13.3014C12.1166 12.9984 11.5996 12.5136 11.2012 11.8946C11.2308 11.8637 11.2418 11.8398 11.2573 11.8366C11.4455 11.7992 11.6886 11.8798 11.8149 11.747C11.9542 11.6006 11.7505 11.3956 11.7633 11.2092C11.7872 10.9223 11.6686 10.6232 11.8285 10.344Z" fill="#C1363A"/>
<path d="M15.8789 13.6109C16.151 13.4469 16.3889 13.2319 16.5797 12.9778C16.6764 12.8488 16.7383 12.8147 16.8085 12.9907C16.8434 13.0777 16.9027 13.1564 16.9323 13.2454C17.009 13.4742 17.1148 13.4298 17.2379 13.2879C17.51 12.9797 17.7724 12.6619 18.0909 12.3988H18.2037C18.058 13.0519 17.7073 13.5896 17.2585 14.0751C17.1438 14.1989 17.0793 14.2325 17.0065 14.0332C16.8498 13.6032 16.8421 13.6109 16.4005 13.7631C16.2 13.8321 15.9924 13.8804 15.7873 13.9378C15.6984 13.9378 15.652 13.8785 15.6133 13.8089C15.6217 13.6354 15.7687 13.6477 15.8789 13.6109Z" fill="#C0363A"/>
<path d="M12.3387 12.2137C12.7171 12.5832 13.0904 12.7689 13.7776 12.9281C13.8028 13.041 13.7099 13.0983 13.6558 13.1699C13.3818 13.5316 13.3792 13.5329 13.8034 13.7166C13.9395 13.776 14.0826 13.8198 14.2225 13.8714C14.2554 13.906 14.2749 13.9513 14.2775 13.999C14.2801 14.0467 14.2656 14.0938 14.2367 14.1319C13.7215 14.1785 13.2028 14.0961 12.7274 13.892C12.8673 13.7508 12.9814 13.629 13.1033 13.5148C13.2142 13.4117 13.1987 13.3382 13.0665 13.2782C12.6533 13.0771 12.4322 12.7031 12.2175 12.3266C12.1736 12.2408 12.1956 12.2241 12.3387 12.2137Z" fill="#C0363A"/>
<path d="M18.0069 10.3279C17.9114 10.1519 17.8367 9.96037 17.7155 9.8037C17.5569 9.59802 17.651 9.55934 17.8444 9.5458C17.8657 9.5458 17.8863 9.53935 17.9089 9.53613C18.2957 9.47617 18.2957 9.47617 18.1397 9.11124C17.9018 8.76695 17.6806 8.41169 17.4473 8.06418C17.5246 7.98229 17.5859 8.05515 17.6439 8.08997C18.1953 8.42714 18.6513 8.89965 18.9688 9.46263C19.0539 9.60769 19.0384 9.65605 18.8559 9.67088C18.689 9.68377 18.4523 9.55869 18.3692 9.76372C18.3118 9.90299 18.3885 10.0977 18.4059 10.2673L18.0069 10.3279Z" fill="#C0373A"/>
<path d="M15.0108 14.6476H14.4641C14.3261 14.6476 14.241 14.5948 14.2365 14.442C14.232 14.2892 14.3203 14.2485 14.4602 14.2485C14.8245 14.2537 15.1894 14.2537 15.5562 14.2485C15.6916 14.2485 15.7831 14.2743 15.7825 14.442C15.7818 14.6096 15.6961 14.6457 15.5601 14.6457H15.0108V14.6476Z" fill="#494748"/>
<path d="M14.2355 14.1317C14.2297 14.0447 14.2246 13.957 14.2188 13.87C14.2374 13.8474 14.2555 13.8248 14.2742 13.8055C14.7255 13.6604 15.1819 13.6765 15.6397 13.7778C15.6764 13.7883 15.7094 13.8091 15.7348 13.8376C15.7603 13.8661 15.7771 13.9013 15.7834 13.939C15.7834 14.0879 15.719 14.1672 15.5578 14.1691C15.1187 14.1743 14.6771 14.211 14.2355 14.1317Z" fill="#423F40"/>
<path d="M15.3971 7.06474C15.7117 7.22657 16.0798 7.24526 16.386 7.43095C16.486 7.49091 16.5833 7.55539 16.6819 7.61793L16.5943 7.69916C16.163 7.47221 15.7207 7.27557 15.2236 7.24784C14.989 7.23559 15.0302 7.11889 15.1076 6.97705C15.107 7.32457 15.2913 7.06603 15.3971 7.06474Z" fill="#ECD7D7"/>
<path d="M12.3382 12.2136C12.177 12.2298 12.2885 12.311 12.3111 12.3542C12.4974 12.7159 12.7895 12.9925 13.0686 13.2794C12.9842 13.3606 12.9003 13.4432 12.7965 13.3032C12.8262 13.1195 12.6399 13.0873 12.5632 12.9809C12.3981 12.7462 12.2028 12.5296 12.1016 12.2575C12.1731 12.1833 12.2066 11.9248 12.3382 12.2136Z" fill="#EBD3D4"/>
<path d="M14.5215 14.7455C14.8116 14.7455 15.0559 14.7455 15.3003 14.7455C15.3499 14.7455 15.4112 14.7333 15.4357 14.799C15.464 14.8758 15.4028 14.9177 15.3589 14.9589C15.123 15.1814 14.7626 15.1079 14.5215 14.7455Z" fill="#3E3B3C"/>
<path d="M17.4446 8.06689C17.7617 8.3504 18.0002 8.71109 18.137 9.11396C18.0396 9.32544 18.0396 9.32544 17.9481 9.19778C18.0383 8.99597 17.8694 8.87218 17.7895 8.73356C17.6594 8.5311 17.5185 8.33588 17.3672 8.14878L17.4446 8.06689Z" fill="#ECD4D5"/>
<path d="M11.7675 9.11191C11.7746 9.15382 11.7675 9.21507 11.79 9.23247C11.8403 9.26923 11.8377 9.19766 11.8513 9.17638C11.9802 8.972 12.0776 8.74311 12.2736 8.58386L12.338 8.65736L11.8274 9.48973C11.7043 9.38077 11.634 9.26213 11.7675 9.11191Z" fill="#ECD6D7"/>
<path d="M14.2862 7.38019L13.3101 7.68966C13.2553 7.5865 13.1328 7.74576 13.1057 7.64904C13.0883 7.58457 13.1773 7.53364 13.2456 7.50398C13.4152 7.62712 13.517 7.42661 13.6621 7.415C13.7858 7.39458 13.9073 7.36263 14.0251 7.31958C14.0966 7.40598 14.1998 7.35569 14.2862 7.38019Z" fill="#EDD8D8"/>
<path d="M11.6895 23.7843L11.7784 23.6947C11.8932 23.7682 11.9718 23.8739 12.0718 24.0274C11.9199 23.9935 11.7846 23.9075 11.6895 23.7843Z" fill="#D27A7C"/>
<path d="M20.5234 25.6973C20.4989 25.6361 20.4409 25.6406 20.3906 25.6296C20.5054 25.5323 20.6485 25.5007 20.8329 25.442C20.7342 25.589 20.644 25.6612 20.5234 25.6973Z" fill="#D37D7F"/>
<path d="M19.1681 17.5671C19.1469 17.612 19.1221 17.6551 19.0939 17.6961C18.5298 18.3646 17.9644 19.0326 17.3945 19.7064C17.1418 19.2737 17.214 18.6167 17.5634 18.1732C17.967 17.6645 18.4918 17.462 19.1681 17.5671Z" fill="#F5F5F5"/>
<path d="M17.2305 13.036C17.5496 12.5338 17.6863 11.978 17.6908 11.3745C17.9242 11.4184 18.0918 11.5525 18.28 11.6427C18.233 11.8039 18.1853 11.9651 18.1382 12.1263C17.9654 12.4732 17.7656 12.8 17.4426 13.0289C17.3581 13.0895 17.3568 13.087 17.2305 13.036Z" fill="#C0373A"/>
<path d="M16.6426 11.108L16.3409 11.2247C15.8896 11.2891 15.4422 11.3865 14.9902 11.478C15.5279 11.0828 16.1294 10.8281 16.7818 10.6128C16.8063 10.8172 16.7348 10.9648 16.6426 11.108Z" fill="#FDFAF5"/>
<path d="M17.2318 13.0358C17.3698 13.1222 17.4052 12.9765 17.4742 12.9224C17.7495 12.7025 17.9094 12.3846 18.1395 12.1261C18.1241 12.2183 18.1079 12.3099 18.0918 12.402C17.8815 12.7615 17.5893 13.0661 17.2389 13.2912C17.1461 13.2054 17.0545 13.1229 17.2318 13.0358Z" fill="#ECD6D6"/>
<path d="M14.4017 13.6845C14.2612 13.6703 14.2347 13.5755 14.2438 13.4588C14.2502 13.3814 14.2721 13.2918 14.3598 13.2957C14.8279 13.3163 15.3024 13.2041 15.7646 13.3531C15.8291 13.5465 15.7833 13.7141 15.5641 13.7238C15.1773 13.7399 14.7853 13.7973 14.4017 13.6845Z" fill="#383536"/>
<path d="M14.4025 13.6844C14.7499 13.6844 15.0981 13.6677 15.4456 13.6844C15.6964 13.6948 15.7944 13.5961 15.7679 13.355L15.882 13.6129L15.6467 13.7786L14.2812 13.8063L14.4025 13.6844Z" fill="#BAB6B7"/>
</g>
<defs>
<clipPath id="clip0_306_10381">
<rect width="17" height="20.5789" fill="white" transform="translate(9 6.54004)"/>
</clipPath>
</defs>
</svg>
