<svg width="34" height="35" viewBox="0 0 34 35" fill="none" xmlns="http://www.w3.org/2000/svg">
<rect x="0.25" y="0.290039" width="33.5" height="33.5" rx="16.75" fill="white"/>
<rect x="0.25" y="0.290039" width="33.5" height="33.5" rx="16.75" stroke="#E6E8EC" stroke-width="0.5"/>
<g clip-path="url(#clip0_306_10698)">
<path d="M10.0223 21.0971C9.99912 21.0789 10.0107 21.0538 10.0107 21.0322C10.0107 17.344 10.0107 13.6561 10.0107 9.96849C10.0107 9.90273 10.033 9.89235 10.0936 9.89322C11.3122 9.89322 12.5302 9.89322 13.7477 9.89322C13.8127 9.89322 13.8315 9.90793 13.8315 9.97368C13.8315 11.2894 13.8315 12.6054 13.8315 13.9217V14.0204C13.8598 14.0056 13.8842 13.9845 13.9028 13.9589C15.1802 12.6322 16.4576 11.3035 17.7351 9.97282C17.7579 9.94676 17.7866 9.92607 17.8188 9.91228C17.8511 9.89849 17.8861 9.89198 17.9214 9.89322C19.5036 9.89322 21.0853 9.89322 22.6663 9.89322H22.7555C22.7492 9.92869 22.7234 9.9408 22.7055 9.95724C21.2499 11.3295 19.7942 12.7009 18.3385 14.0714C18.2886 14.119 18.2814 14.1493 18.3251 14.2029C18.3857 14.2791 18.4374 14.3613 18.4926 14.4417C18.5078 14.4755 18.4837 14.4954 18.4632 14.5144C18.219 14.735 17.9882 14.9704 17.7422 15.1901C17.646 15.2767 17.5568 15.3684 17.4633 15.4575C17.3697 15.5466 17.285 15.6375 17.1852 15.7171C17.1561 15.7387 17.1309 15.7647 17.1103 15.7941C17.211 15.7941 17.3028 15.7941 17.3937 15.7941C17.5809 15.7941 17.7672 15.7941 17.9534 15.7941C17.9784 15.7941 18.0283 15.775 18.0203 15.8347C17.9983 15.8495 17.9732 15.8592 17.9468 15.8633C17.9205 15.8673 17.8935 15.8655 17.8679 15.8581C17.7835 15.8499 17.6987 15.8464 17.6139 15.8477H10.2041C10.033 15.8477 10.0473 15.8382 10.0473 16C10.0473 16.4067 10.0473 16.8133 10.0473 17.2191C10.0508 17.6102 10.0508 18.001 10.0473 18.3915C10.0473 18.4451 10.0473 18.4996 10.0473 18.5533C10.0473 19.358 10.0473 20.1629 10.0473 20.9681C10.0464 21.0131 10.0579 21.0599 10.0223 21.0971Z" fill="#3E4094"/>
<path d="M10.0254 17.2235C10.0254 16.7745 10.0254 16.3254 10.0254 15.8764C10.0254 15.8348 10.0432 15.8227 10.0824 15.8262C10.0994 15.8262 10.1163 15.8262 10.1332 15.8262H17.7409C17.81 15.8353 17.8796 15.8405 17.9494 15.8418C17.9762 15.8418 18.0038 15.8418 18.0198 15.8149C18.029 15.8041 18.0421 15.797 18.0564 15.795C18.0733 15.7933 18.0903 15.7933 18.1072 15.795C18.5127 15.8046 18.9182 15.7786 19.3246 15.7786C19.3628 15.7752 19.4012 15.7829 19.435 15.8006C19.4687 15.8183 19.4964 15.8452 19.5144 15.8781C19.5831 15.988 19.6597 16.0935 19.7346 16.2C19.9128 16.4647 20.1044 16.7252 20.2862 16.9908C20.3424 17.086 20.4146 17.1716 20.4752 17.2651C20.495 17.2913 20.5104 17.3206 20.5206 17.3516L20.575 17.4381C20.5349 17.471 20.4859 17.4597 20.4422 17.4597H16.5083C16.4574 17.4573 16.4065 17.4647 16.3585 17.4814L15.8657 16.7027L15.7454 16.5123L15.4548 16.7857L14.97 17.2417C14.9557 17.2555 14.945 17.2763 14.921 17.2789C14.8752 17.2513 14.8211 17.24 14.7677 17.2469H10.1582C10.1127 17.2452 10.0655 17.2555 10.0254 17.2235Z" fill="#3B3972"/>
<path d="M19.7341 16.2263C19.6343 16.1051 19.5559 15.9719 19.4668 15.8447C19.459 15.8306 19.4475 15.8189 19.4333 15.8108C19.4192 15.8027 19.403 15.7986 19.3866 15.7989C18.9311 15.8058 18.4766 15.8101 18.0221 15.8144H17.0488L17.1709 15.7011L18.4365 14.5088C18.4561 14.4898 18.4837 14.4751 18.4864 14.443C18.5087 14.443 18.5212 14.4283 18.5345 14.4154C18.6397 14.3176 18.7449 14.2207 18.8491 14.122C19.1539 13.8331 19.457 13.5432 19.7627 13.2568L20.7938 12.2843L21.8303 11.3066L22.841 10.3548L23.8775 9.37713L24.9033 8.40462C25.2001 8.12515 25.4987 7.84568 25.7946 7.56534C25.8267 7.5342 25.8507 7.52727 25.8837 7.55756C25.9728 7.6337 26.0557 7.70897 26.1448 7.78079C26.1885 7.8154 26.1876 7.84308 26.1555 7.88548C25.8989 8.22378 25.6449 8.56295 25.39 8.90212C25.0424 9.36358 24.6954 9.82503 24.349 10.2865L23.2091 11.8041L22.0318 13.3771C21.874 13.5873 21.7172 13.7984 21.5541 14.0165H24.0032C24.013 14.0476 23.9898 14.0563 23.9782 14.0675C23.6217 14.4093 23.2652 14.7519 22.9087 15.092C22.62 15.3662 22.3277 15.6379 22.038 15.9113C21.776 16.1588 21.5157 16.4088 21.2537 16.6554C21.0282 16.8683 20.801 17.0794 20.5746 17.2914C20.555 17.3095 20.5389 17.3294 20.5211 17.3485L20.2733 17.0024C20.2923 16.9749 20.3151 16.9502 20.3411 16.9288C21.0469 16.2442 21.7522 15.5589 22.4569 14.8731C22.5763 14.7571 22.6913 14.636 22.8134 14.5131C22.7901 14.5058 22.7654 14.5037 22.7412 14.5071H20.7279C20.6904 14.5071 20.6387 14.5226 20.62 14.4863C20.6013 14.45 20.6414 14.418 20.6628 14.3894C20.9632 13.9853 21.2671 13.5839 21.5692 13.1781C22.1289 12.4311 22.6892 11.6847 23.2501 10.9389C23.4907 10.6179 23.7305 10.2951 23.9738 9.97587C23.9969 9.94645 24.021 9.9179 24.0469 9.88935C23.8428 10.0624 23.6681 10.2666 23.4613 10.4379C23.4506 10.4474 23.439 10.4561 23.4292 10.4665C23.1752 10.726 22.9052 10.9622 22.6449 11.2105C22.4417 11.4052 22.2394 11.6016 22.0309 11.7911C21.8651 11.9425 21.7082 12.1026 21.5425 12.254C21.1976 12.5707 20.8616 12.8951 20.5211 13.2161L19.5407 14.1437C19.1994 14.4638 18.858 14.7831 18.5194 15.1058C18.449 15.1733 18.3705 15.233 18.301 15.31C18.327 15.3159 18.3538 15.3177 18.3803 15.3152H20.2698C20.3063 15.3152 20.3589 15.3005 20.3776 15.3377C20.3963 15.3749 20.358 15.4069 20.3366 15.4363C20.1584 15.682 19.9801 15.9286 19.8019 16.1735C19.7805 16.196 19.7698 16.2254 19.7341 16.2263Z" fill="#BCBEC0"/>
<path d="M21.46 18.7005L22.1454 19.6765L23.0366 20.957L23.0973 21.0435C23.0776 21.0626 23.0545 21.0531 23.0349 21.0531H18.6624C18.6416 21.0549 18.6208 21.0503 18.6027 21.0401C18.5847 21.0299 18.5703 21.0144 18.5617 20.9959C18.3264 20.6187 18.0894 20.2441 17.8532 19.8712C17.7828 19.8175 17.7641 19.7327 17.7097 19.6661C17.6839 19.6299 17.6601 19.5923 17.6384 19.5536C17.5894 19.474 17.5341 19.3979 17.4887 19.3157C17.4432 19.2335 17.3773 19.1357 17.3193 19.0466C17.3012 19.0166 17.2859 18.985 17.2739 18.9523L17.1545 18.7472C17.1277 18.6979 17.1473 18.6728 17.2008 18.6659C17.2305 18.6641 17.2603 18.6641 17.2899 18.6659H21.2782C21.3411 18.6571 21.4052 18.6693 21.46 18.7005Z" fill="#312F46"/>
<path d="M10.0215 21.0975C10.0215 20.2271 10.0215 19.3563 10.0215 18.4853C10.0215 18.4551 10.0215 18.4248 10.0215 18.3945C10.0607 18.3608 10.1106 18.3711 10.1534 18.3711H13.7139C13.7522 18.3711 13.7923 18.3642 13.8244 18.3936V19.2528C13.8244 19.8472 13.8244 20.4416 13.8244 21.0352C13.8244 21.0836 13.8191 21.1035 13.7602 21.1035C12.5285 21.1035 11.2969 21.1035 10.0652 21.1035C10.0505 21.1021 10.0359 21.1001 10.0215 21.0975Z" fill="#323049"/>
<path d="M21.4582 18.7006C21.3288 18.6839 21.1981 18.6792 21.0678 18.6868H17.2355C17.1927 18.6868 17.1392 18.6755 17.1597 18.7482C17.0144 18.5206 16.8692 18.2939 16.7248 18.0655C16.6054 17.8778 16.4877 17.69 16.3683 17.5014C16.3643 17.4934 16.3613 17.485 16.3594 17.4763C16.3593 17.4704 16.3604 17.4645 16.3627 17.4591C16.365 17.4536 16.3684 17.4486 16.3727 17.4445C16.3771 17.4404 16.3822 17.4371 16.3879 17.435C16.3936 17.4329 16.3997 17.4319 16.4057 17.4322H20.5732L21.3165 18.4903C21.3637 18.563 21.41 18.634 21.4582 18.7006Z" fill="#353356"/>
<path d="M13.8283 18.3934H10.0254V17.2236H14.8381C14.8782 17.2236 14.9192 17.2236 14.9165 17.2781C14.8125 17.3722 14.7118 17.4696 14.6144 17.5706C14.5467 17.6407 14.4682 17.7004 14.3978 17.7661C14.2196 17.934 14.0413 18.1122 13.8631 18.2801C13.8265 18.3147 13.8346 18.3545 13.8283 18.3934Z" fill="#37355D"/>
<path d="M22.0229 24.535C21.5087 24.535 21.0862 24.2391 20.9588 23.7892C20.9183 23.6444 20.911 23.4927 20.9373 23.3449C20.9637 23.197 21.023 23.0566 21.1111 22.9333C21.1993 22.8101 21.3141 22.707 21.4476 22.6314C21.5811 22.5558 21.73 22.5095 21.8839 22.4957C22.2849 22.4602 22.6263 22.5701 22.8865 22.8755C23.0011 23.0124 23.0769 23.1759 23.1066 23.3499C23.1363 23.5239 23.1188 23.7024 23.0559 23.8679C22.9929 24.0333 22.8867 24.18 22.7476 24.2935C22.6085 24.407 22.4414 24.4834 22.2627 24.5151C22.1835 24.5287 22.1033 24.5354 22.0229 24.535Z" fill="#3B3A74"/>
<path d="M15.3553 23.5072C15.3553 23.2014 15.3553 22.896 15.3553 22.5909C15.3553 22.5641 15.3411 22.5277 15.3954 22.5277C15.7172 22.5277 16.0389 22.5156 16.3571 22.5822C16.8214 22.6809 17.0701 22.9647 17.087 23.4267C17.1022 23.6076 17.0763 23.7895 17.0113 23.9597C16.8936 24.2365 16.6628 24.375 16.3758 24.4433C16.1672 24.4857 15.9541 24.5031 15.7412 24.4952C15.6352 24.4952 15.5282 24.4952 15.4222 24.4952C15.3678 24.4952 15.3527 24.4823 15.3536 24.4286C15.3571 24.1223 15.3553 23.8152 15.3553 23.5072Z" fill="#3B3A74"/>
<path d="M11.8173 22.5282C11.8125 22.5532 11.799 22.5758 11.7789 22.5922C11.5481 22.8726 11.3173 23.1538 11.0838 23.4332C11.0768 23.4391 11.0712 23.4463 11.0674 23.4545C11.0635 23.4626 11.0615 23.4714 11.0615 23.4804C11.0615 23.4893 11.0635 23.4982 11.0674 23.5063C11.0712 23.5145 11.0768 23.5217 11.0838 23.5275C11.3289 23.8269 11.5722 24.1289 11.8164 24.43L11.8645 24.4949C11.6863 24.4949 11.5134 24.4871 11.3458 24.4949C11.2991 24.5006 11.2517 24.4923 11.2099 24.4711C11.1682 24.4499 11.1341 24.4169 11.1123 24.3763C10.9421 24.1315 10.7612 23.8927 10.5847 23.6513C10.5713 23.6331 10.5571 23.6149 10.5401 23.5942C10.5293 23.6137 10.5258 23.6364 10.5303 23.6582C10.5303 23.9178 10.5303 24.1704 10.5303 24.4256C10.5303 24.4784 10.517 24.4949 10.4617 24.494C10.3289 24.4897 10.1943 24.494 10.0624 24.494C10.0161 24.494 9.99914 24.4836 10 24.436C10 23.8177 10 23.1996 10 22.5818C10 22.5394 10.0116 22.5247 10.0571 22.5256C10.1952 22.5256 10.3334 22.5256 10.4706 22.5256C10.5214 22.5256 10.5303 22.5429 10.5294 22.587C10.5294 22.8362 10.5294 23.0854 10.5294 23.3337V23.4055C10.5562 23.3744 10.5722 23.3562 10.5874 23.3363C10.7808 23.0845 10.9751 22.8328 11.1676 22.5793C11.1785 22.5618 11.1942 22.5476 11.2129 22.5381C11.2316 22.5287 11.2526 22.5243 11.2736 22.5256C11.4545 22.5299 11.6346 22.5282 11.8173 22.5282Z" fill="#3B3A74"/>
<path d="M17.6545 19.5548C17.7274 19.6578 17.7944 19.7647 17.855 19.875C17.8239 19.875 17.8096 19.9009 17.7909 19.9182C17.4781 20.215 17.167 20.5135 16.8524 20.8103C16.4888 21.1564 16.1249 21.5004 15.7606 21.8425L14.6626 22.8808C14.6081 22.9333 14.5484 22.9805 14.4844 23.0218L14.7134 22.6809L16.9335 19.4579C17.0315 19.3152 17.1314 19.1741 17.2285 19.0314C17.2497 19.0089 17.2653 18.9819 17.274 18.9526C17.3577 19.0668 17.4299 19.188 17.5021 19.3082C17.4549 19.4039 17.3949 19.4932 17.3239 19.5739C17.0921 19.8957 16.8595 20.2167 16.626 20.5369C16.6052 20.5654 16.5829 20.5928 16.5592 20.6191C16.6002 20.5749 16.6483 20.5325 16.6884 20.4901C16.9968 20.2012 17.2838 19.8914 17.5903 19.6007C17.6144 19.586 17.6287 19.5661 17.6545 19.5548Z" fill="#BCBEC0"/>
<path d="M19.787 23.179C19.4305 22.9342 19.1088 22.9238 18.9011 23.1444C18.8141 23.2447 18.7651 23.3709 18.7622 23.502C18.7593 23.6331 18.8026 23.7613 18.8851 23.8651C19.0919 24.0996 19.402 24.0944 19.787 23.8461C19.787 24.0278 19.787 24.2052 19.787 24.3826C19.787 24.4172 19.7648 24.4267 19.7407 24.4379C19.6496 24.4818 19.5518 24.511 19.451 24.5245C18.8744 24.6188 18.3682 24.3012 18.2407 23.7648C18.1169 23.2456 18.3887 22.7161 18.8798 22.5535C19.1496 22.4609 19.4452 22.4686 19.7095 22.5751C19.7348 22.5816 19.7568 22.5969 19.7713 22.6182C19.7857 22.6394 19.7916 22.665 19.7879 22.6902C19.7835 22.8468 19.787 23.0086 19.787 23.179Z" fill="#3B3A74"/>
<path d="M12.957 23.5094C12.957 23.204 12.957 22.8986 12.957 22.594C12.957 22.5412 12.9695 22.5265 13.0248 22.5274C13.3652 22.5274 13.7066 22.5274 14.0479 22.5274C14.0969 22.5274 14.1165 22.5378 14.1148 22.5888C14.1148 22.6944 14.1148 22.8008 14.1148 22.9063C14.1148 22.9548 14.0969 22.9643 14.0524 22.9635C13.8857 22.9635 13.7182 22.9635 13.5515 22.9635C13.4909 22.9635 13.4784 22.9816 13.482 23.0344C13.486 23.1024 13.486 23.1706 13.482 23.2386C13.482 23.2845 13.4962 23.2931 13.539 23.2931C13.7012 23.2931 13.8634 23.2931 14.0256 23.2931C14.0773 23.2931 14.0916 23.3078 14.0898 23.3571C14.0862 23.4558 14.0862 23.5544 14.0898 23.653C14.0898 23.7041 14.0729 23.7153 14.0238 23.7145C13.8643 23.7145 13.7039 23.7145 13.5444 23.7145C13.4918 23.7145 13.4793 23.73 13.482 23.7776C13.4873 23.8502 13.4873 23.9231 13.482 23.9957C13.4757 24.0632 13.5034 24.0718 13.5631 24.0709C13.7253 24.0666 13.8875 24.0709 14.0497 24.0709C14.0978 24.0709 14.1183 24.0796 14.1156 24.1315C14.1156 24.2397 14.1156 24.3478 14.1156 24.456C14.1156 24.4923 14.1058 24.5053 14.0675 24.5053C13.711 24.5053 13.3608 24.5053 13.0069 24.5053C12.9526 24.5053 12.9588 24.4759 12.9588 24.4421L12.957 23.5094Z" fill="#3B3A74"/>
<path d="M19.7325 16.2261L20.3813 15.3375H18.2628L18.2539 15.3219L24.0799 9.83203L24.0933 9.84328L20.6077 14.4861H22.8474C22.8474 14.519 22.8233 14.5294 22.809 14.5432L20.3341 16.958C20.3162 16.9762 20.3029 17.0022 20.2699 16.9996L19.7325 16.2261Z" fill="#FEF112"/>
<path d="M17.6541 19.5545C17.6541 19.5762 17.6389 19.5874 17.6256 19.6004L16.5454 20.6568C16.5419 20.6599 16.5378 20.6622 16.5333 20.6635C16.5289 20.6649 16.5242 20.6652 16.5195 20.6646C16.5445 20.63 16.5685 20.5945 16.5944 20.5599L17.4714 19.3486C17.4812 19.3348 17.4928 19.3235 17.5035 19.3105L17.6541 19.5545Z" fill="#FEF112"/>
<path d="M22.0216 24.0393C21.9483 24.0422 21.8752 24.0306 21.8066 24.0054C21.738 23.9802 21.6754 23.9417 21.6224 23.8924C21.5695 23.843 21.5274 23.7838 21.4987 23.7183C21.4699 23.6528 21.4551 23.5823 21.4551 23.5111C21.4551 23.4399 21.4699 23.3694 21.4987 23.3038C21.5274 23.2383 21.5695 23.1791 21.6224 23.1298C21.6754 23.0804 21.738 23.042 21.8066 23.0167C21.8752 22.9915 21.9483 22.98 22.0216 22.9829C22.0944 22.9802 22.1669 22.9921 22.2347 23.0179C22.3025 23.0437 22.3641 23.0828 22.4156 23.1327C22.4672 23.1827 22.5075 23.2424 22.5342 23.3082C22.5609 23.3739 22.5733 23.4443 22.5706 23.515C22.5734 23.5853 22.5609 23.6553 22.5342 23.7207C22.5074 23.7861 22.4669 23.8454 22.4153 23.8947C22.3636 23.944 22.3019 23.9824 22.2342 24.0073C22.1664 24.0322 22.094 24.0431 22.0216 24.0393Z" fill="#FEFEFE"/>
<path d="M15.8809 23.5106C15.8809 23.3462 15.8809 23.1818 15.8809 23.0183C15.8809 22.9767 15.888 22.9603 15.9361 22.962C16.0205 22.9627 16.1045 22.9726 16.1866 22.9915C16.2713 23.0087 16.3488 23.0501 16.4091 23.1104C16.4694 23.1707 16.5099 23.2471 16.5252 23.3298C16.5555 23.4558 16.5555 23.587 16.5252 23.7131C16.5076 23.7929 16.4662 23.8659 16.4061 23.923C16.3461 23.98 16.27 24.0187 16.1874 24.0341C16.1095 24.0507 16.0301 24.0608 15.9504 24.0643C15.8933 24.0643 15.8835 24.047 15.8844 23.9969C15.8826 23.8351 15.8809 23.6733 15.8809 23.5106Z" fill="#FEFEFE"/>
</g>
<defs>
<clipPath id="clip0_306_10698">
<rect width="16" height="17" fill="white" transform="translate(10 7.54004)"/>
</clipPath>
</defs>
</svg>
